<?xml version="1.0" encoding="UTF-8" standalone="no"?>
<svg width="77px" height="76px" viewBox="0 0 77 76" version="1.1" xmlns="http://www.w3.org/2000/svg" xmlns:xlink="http://www.w3.org/1999/xlink">
    <!-- Generator: Sketch 39.1 (31720) - http://www.bohemiancoding.com/sketch -->
    <title>Group</title>
    <desc>Created with Sketch.</desc>
    <defs>
        <linearGradient x1="50%" y1="0%" x2="50%" y2="100%" id="linearGradient-1">
            <stop stop-color="#EEEEEE" offset="0%"></stop>
            <stop stop-color="#FFFFFF" offset="100%"></stop>
        </linearGradient>
    </defs>
    <g id="Page-1" stroke="none" stroke-width="1" fill="none" fill-rule="evenodd">
        <g id="noun_36334_cc">
            <g id="Group">
                <path d="M38.409,0.176 C17.517,0.138 0.588,17.06 0.591,37.921 C0.587,58.66 17.359,75.643 38.303,75.661 C59.214,75.679 76.048,58.77 76.081,37.987 C76.115,17.07 59.19,0.214 38.409,0.176 L38.409,0.176 Z M70.834,43.891 C70.525,45.621 70.067,47.313 69.474,48.99 C69.404,48.983 69.339,48.984 69.279,48.969 C68.435,48.777 67.65,49.169 67.334,49.937 C66.996,50.754 67.39,51.664 68.066,52.004 C68.099,52.021 68.129,52.044 68.189,52.081 C67.438,53.687 66.545,55.209 65.527,56.688 C65.052,56.381 64.548,56.299 64.013,56.468 C63.669,56.575 63.404,56.794 63.195,57.087 C62.937,57.442 62.866,57.842 62.92,58.268 C62.974,58.689 63.181,59.027 63.51,59.315 C62.352,60.678 61.108,61.919 59.739,63.087 C59.366,62.664 58.902,62.455 58.341,62.483 C57.978,62.502 57.665,62.636 57.388,62.865 C57.054,63.144 56.866,63.503 56.815,63.933 C56.764,64.352 56.872,64.734 57.114,65.102 C55.642,66.123 54.117,67.006 52.494,67.775 C52.255,67.281 51.886,66.966 51.37,66.837 C51.013,66.748 50.66,66.779 50.32,66.927 C49.544,67.263 49.228,67.989 49.423,69.044 C47.766,69.646 46.063,70.093 44.291,70.419 C44.173,69.855 43.871,69.431 43.356,69.179 C43.061,69.035 42.751,68.987 42.421,69.037 C41.981,69.104 41.626,69.308 41.349,69.657 C41.079,69.999 40.992,70.395 41.001,70.848 C39.214,70.984 37.451,70.987 35.664,70.844 C35.704,70.295 35.538,69.852 35.171,69.484 C34.9,69.212 34.566,69.071 34.192,69.029 C33.759,68.977 33.372,69.098 33.026,69.361 C32.74,69.578 32.65,69.722 32.366,70.412 C30.627,70.102 28.925,69.642 27.242,69.044 C27.401,68.533 27.379,68.058 27.12,67.606 C26.938,67.293 26.682,67.067 26.349,66.925 C25.932,66.748 25.508,66.742 25.083,66.909 C24.671,67.07 24.377,67.361 24.185,67.775 C22.563,67.006 21.042,66.126 19.568,65.106 C19.873,64.622 19.967,64.112 19.779,63.568 C19.664,63.235 19.456,62.976 19.171,62.775 C18.816,62.521 18.419,62.442 17.989,62.498 C17.57,62.553 17.23,62.758 16.941,63.088 C15.573,61.925 14.326,60.677 13.179,59.33 C13.872,58.5 13.958,57.716 13.442,57.033 C12.923,56.345 12.15,56.218 11.139,56.672 C10.131,55.221 9.248,53.695 8.481,52.072 C8.966,51.838 9.271,51.474 9.411,50.973 C9.51,50.615 9.479,50.263 9.338,49.922 C9.009,49.132 8.313,48.821 7.208,48.994 C6.607,47.337 6.16,45.634 5.835,43.865 C6.377,43.756 6.782,43.472 7.042,43 C7.221,42.674 7.265,42.325 7.208,41.96 C7.143,41.527 6.929,41.187 6.586,40.919 C6.245,40.653 5.848,40.566 5.41,40.573 C5.261,38.795 5.261,37.039 5.411,35.251 C6.002,35.281 6.493,35.088 6.868,34.641 C7.108,34.355 7.213,34.017 7.233,33.65 C7.273,32.882 6.806,32.299 5.841,31.949 C6.148,30.213 6.61,28.514 7.21,26.817 C7.761,27.002 8.275,26.948 8.753,26.631 C9.055,26.432 9.254,26.152 9.372,25.812 C9.643,25.029 9.366,24.362 8.49,23.738 C9.244,22.142 10.13,20.618 11.149,19.141 C11.615,19.445 12.1,19.533 12.618,19.379 C12.975,19.274 13.255,19.059 13.471,18.758 C13.955,18.085 13.86,17.301 13.179,16.504 C14.32,15.154 15.571,13.911 16.937,12.746 C17.317,13.168 17.771,13.373 18.326,13.35 C18.689,13.334 19.002,13.201 19.279,12.973 C19.923,12.442 20.031,11.676 19.579,10.719 C21.029,9.712 22.555,8.83 24.18,8.058 C24.432,8.563 24.816,8.882 25.355,9.006 C25.71,9.087 26.047,9.039 26.375,8.895 C26.774,8.72 27.052,8.424 27.219,8.024 C27.389,7.624 27.373,7.219 27.245,6.789 C28.925,6.186 30.629,5.734 32.393,5.411 C32.498,5.943 32.767,6.337 33.216,6.598 C33.538,6.783 33.882,6.841 34.251,6.792 C34.695,6.733 35.048,6.524 35.325,6.176 C35.596,5.836 35.689,5.441 35.67,4.989 C37.448,4.834 39.203,4.84 40.985,4.984 C40.996,5.091 41.004,5.191 41.011,5.29 C41.069,5.996 41.557,6.584 42.228,6.758 C42.909,6.933 43.63,6.67 44.013,6.084 C44.139,5.891 44.213,5.664 44.325,5.421 C46.047,5.73 47.748,6.186 49.432,6.787 C49.273,7.328 49.301,7.83 49.599,8.297 C49.8,8.611 50.082,8.821 50.43,8.946 C51.213,9.227 51.95,8.925 52.508,8.065 C54.105,8.815 55.627,9.704 57.11,10.724 C56.796,11.207 56.716,11.721 56.897,12.262 C57.008,12.595 57.221,12.853 57.505,13.056 C57.86,13.311 58.258,13.39 58.687,13.334 C59.104,13.28 59.444,13.07 59.738,12.744 C61.099,13.901 62.341,15.145 63.468,16.469 C63.303,16.739 63.125,16.981 63,17.248 C62.871,17.527 62.877,17.838 62.931,18.138 C62.985,18.442 63.134,18.703 63.343,18.93 C63.892,19.522 64.668,19.609 65.487,19.169 C65.842,19.409 67.69,22.562 68.183,23.756 C67.664,24.019 67.328,24.437 67.229,25.024 C67.169,25.388 67.237,25.736 67.413,26.063 C67.785,26.758 68.485,27.026 69.465,26.828 C70.068,28.487 70.517,30.191 70.839,31.947 C69.907,32.226 69.381,32.8 69.461,33.807 C69.482,34.093 69.59,34.355 69.766,34.585 C69.941,34.815 70.155,35.01 70.424,35.104 C70.686,35.194 70.965,35.233 71.275,35.302 C71.414,37.029 71.407,38.784 71.274,40.576 C70.685,40.551 70.192,40.739 69.814,41.183 C69.572,41.467 69.465,41.807 69.441,42.17 C69.389,42.934 69.859,43.515 70.834,43.891 L70.834,43.891 Z" id="Shape" stroke="url(#linearGradient-1)" stroke-width="0.3"></path>
                <path d="M45.105,38.277 C45.609,38.336 46.116,38.395 46.621,38.456 C47.827,38.601 49.032,38.751 50.24,38.888 C50.855,38.959 51.469,39.066 52.095,39.023 C53.139,38.948 54.186,38.901 55.228,38.84 C56.687,38.755 58.145,38.666 59.604,38.581 C60.779,38.515 61.957,38.455 63.132,38.389 C65.07,38.279 67.008,38.166 68.946,38.056 C69.612,38.016 70.278,37.975 70.944,37.936 C70.673,37.893 70.402,37.869 70.131,37.854 C69.293,37.807 68.454,37.765 67.618,37.717 C66.122,37.632 64.627,37.54 63.13,37.454 C61.991,37.39 60.855,37.33 59.715,37.266 C58.114,37.176 56.516,37.083 54.916,36.991 C54.127,36.945 53.336,36.89 52.546,36.849 C52.06,36.825 51.571,36.772 51.08,36.845 C50.54,36.923 49.997,36.983 49.455,37.048 C48.229,37.195 47.004,37.344 45.78,37.489 C45.504,37.523 45.226,37.547 44.943,37.575 C44.898,37.211 44.86,36.888 44.818,36.544 C44.931,36.523 45.031,36.499 45.13,36.484 C45.457,36.437 45.782,36.394 46.109,36.347 C47.516,36.145 48.925,35.947 50.332,35.738 C50.824,35.665 51.32,35.618 51.799,35.457 C53.727,34.81 55.66,34.176 57.593,33.539 C61.472,32.257 65.354,30.977 69.235,29.695 C69.356,29.655 69.477,29.612 69.597,29.57 C69.593,29.552 69.588,29.535 69.583,29.516 C69.281,29.578 68.979,29.639 68.677,29.701 C65.634,30.333 62.591,30.964 59.549,31.596 C57.041,32.117 54.532,32.633 52.026,33.159 C51.522,33.266 51.006,33.328 50.52,33.524 C48.651,34.278 46.778,35.025 44.907,35.773 C44.824,35.808 44.738,35.835 44.644,35.866 C44.507,35.533 44.38,35.225 44.248,34.904 C44.341,34.859 44.415,34.821 44.491,34.789 C46.353,33.993 48.217,33.197 50.077,32.399 C50.232,32.333 50.386,32.256 50.526,32.164 C55.752,28.738 60.975,25.311 66.2,21.883 C66.284,21.829 66.364,21.772 66.448,21.717 C66.336,21.72 66.245,21.761 66.156,21.806 C60.586,24.61 55.015,27.414 49.446,30.221 C49.287,30.302 49.134,30.398 48.992,30.505 C47.376,31.713 45.763,32.923 44.149,34.132 C44.068,34.193 43.983,34.248 43.894,34.312 C43.673,34.027 43.465,33.764 43.248,33.488 C43.336,33.416 43.406,33.356 43.478,33.298 C45.071,32.046 46.665,30.794 48.257,29.54 C48.381,29.442 48.503,29.334 48.609,29.215 C50.877,26.678 53.142,24.138 55.407,21.599 C57.303,19.474 59.198,17.35 61.093,15.225 C61.147,15.164 61.197,15.1 61.25,15.037 C61.145,15.061 61.08,15.116 61.019,15.172 C56.361,19.325 51.704,23.478 47.047,27.633 C46.935,27.733 46.832,27.844 46.74,27.963 C45.479,29.562 44.222,31.164 42.964,32.764 C42.901,32.845 42.834,32.921 42.764,33.006 C42.483,32.784 42.22,32.575 41.943,32.357 C42.01,32.262 42.068,32.177 42.129,32.096 C43.327,30.496 44.527,28.898 45.721,27.296 C45.861,27.108 45.984,26.904 46.09,26.695 C48.871,21.177 51.651,15.657 54.43,10.137 C54.471,10.056 54.503,9.972 54.541,9.889 C54.445,9.948 54.388,10.028 54.334,10.111 C50.933,15.296 47.531,20.48 44.131,25.666 C44.025,25.83 43.929,26.006 43.853,26.186 C43.059,28.03 42.272,29.874 41.482,31.719 C41.443,31.813 41.397,31.904 41.349,32.007 C41.024,31.871 40.713,31.741 40.387,31.606 C40.421,31.505 40.45,31.417 40.484,31.332 C41.237,29.452 41.992,27.572 42.744,25.692 C42.799,25.553 42.85,25.409 42.881,25.263 C43.412,22.719 43.94,20.174 44.469,17.63 C45.2,14.109 45.933,10.587 46.664,7.065 C46.693,6.922 46.714,6.778 46.74,6.635 C46.605,6.89 46.515,7.156 46.427,7.422 C44.676,12.725 42.924,18.026 41.176,23.33 C40.924,24.097 40.648,24.854 40.547,25.669 C40.358,27.192 40.118,28.709 39.9,30.228 C39.842,30.626 39.783,31.024 39.722,31.436 C39.363,31.392 39.033,31.351 38.679,31.308 C38.696,31.143 38.705,30.994 38.723,30.846 C38.791,30.267 38.863,29.687 38.933,29.107 C39.056,28.088 39.182,27.069 39.301,26.05 C39.378,25.386 39.497,24.726 39.432,24.051 C39.398,23.695 39.389,23.337 39.369,22.978 C39.261,21.078 39.148,19.177 39.04,17.277 C38.946,15.649 38.853,14.022 38.76,12.394 C38.665,10.729 38.571,9.063 38.475,7.398 C38.436,6.711 38.395,6.025 38.354,5.338 C38.343,5.335 38.333,5.331 38.325,5.328 C38.286,5.948 38.246,6.568 38.211,7.188 C38.163,8.025 38.121,8.863 38.074,9.7 C37.988,11.168 37.9,12.636 37.816,14.103 C37.767,14.941 37.727,15.778 37.679,16.616 C37.59,18.168 37.5,19.72 37.408,21.273 C37.36,22.099 37.305,22.925 37.263,23.752 C37.238,24.222 37.197,24.69 37.26,25.162 C37.357,25.871 37.437,26.583 37.522,27.294 C37.648,28.341 37.777,29.388 37.901,30.436 C37.934,30.722 37.962,31.01 37.993,31.309 C37.636,31.353 37.312,31.393 36.964,31.435 C36.942,31.331 36.918,31.233 36.902,31.134 C36.872,30.929 36.847,30.722 36.818,30.518 C36.618,29.12 36.418,27.721 36.214,26.323 C36.102,25.541 35.982,24.767 35.73,24.007 C33.822,18.28 31.939,12.546 30.045,6.814 C30.008,6.702 29.964,6.592 29.913,6.456 C29.905,6.506 29.897,6.525 29.902,6.542 C30.336,8.644 30.773,10.745 31.211,12.847 C32.015,16.719 32.817,20.591 33.626,24.462 C33.721,24.912 33.789,25.367 33.967,25.801 C34.713,27.643 35.447,29.489 36.187,31.334 C36.221,31.419 36.251,31.506 36.286,31.607 C35.962,31.742 35.652,31.87 35.323,32.008 C35.277,31.906 35.232,31.814 35.193,31.721 C34.405,29.886 33.622,28.049 32.833,26.215 C32.748,26.017 32.646,25.823 32.528,25.643 C29.114,20.433 25.696,15.225 22.277,10.018 C22.232,9.95 22.182,9.886 22.133,9.819 C22.145,9.937 22.192,10.035 22.24,10.132 C25.033,15.676 27.825,21.221 30.621,26.765 C30.713,26.949 30.823,27.126 30.947,27.292 C32.153,28.908 33.364,30.521 34.573,32.135 C34.628,32.207 34.675,32.283 34.727,32.36 C34.442,32.584 34.185,32.786 33.903,33.006 C33.804,32.884 33.71,32.769 33.619,32.652 C32.39,31.089 31.161,29.524 29.931,27.962 C29.833,27.837 29.721,27.719 29.604,27.614 C26.565,24.902 23.527,22.192 20.486,19.482 C18.889,18.057 17.293,16.633 15.695,15.21 C15.635,15.156 15.585,15.074 15.449,15.071 C15.515,15.151 15.558,15.202 15.601,15.25 C19.73,19.879 23.857,24.508 27.99,29.134 C28.127,29.288 28.278,29.432 28.44,29.56 C30.024,30.809 31.611,32.054 33.196,33.301 C33.274,33.362 33.346,33.428 33.422,33.494 C33.196,33.779 32.993,34.037 32.779,34.308 C32.692,34.248 32.614,34.199 32.54,34.144 C30.918,32.93 29.297,31.714 27.674,30.5 C27.554,30.41 27.428,30.324 27.295,30.257 C21.683,27.428 16.07,24.602 10.458,21.777 C10.392,21.743 10.322,21.717 10.254,21.688 C10.309,21.771 10.376,21.82 10.446,21.866 C15.653,25.283 20.863,28.7 26.072,32.115 C26.245,32.227 26.428,32.325 26.618,32.407 C28.463,33.2 30.307,33.988 32.15,34.777 C32.245,34.817 32.334,34.862 32.426,34.906 C32.285,35.239 32.155,35.55 32.022,35.87 C31.916,35.83 31.829,35.798 31.742,35.764 C30.335,35.2 28.93,34.633 27.52,34.073 C26.628,33.718 25.744,33.365 24.79,33.178 C21.99,32.63 19.201,32.029 16.408,31.449 C13.725,30.891 11.042,30.332 8.36,29.774 C7.875,29.673 7.39,29.576 6.907,29.478 C7.014,29.549 7.128,29.593 7.243,29.631 C12.876,31.491 18.51,33.352 24.143,35.21 C24.572,35.352 24.999,35.504 25.438,35.605 C25.86,35.7 26.295,35.734 26.724,35.795 C28.356,36.026 29.987,36.259 31.619,36.492 C31.698,36.504 31.777,36.533 31.855,36.555 C31.811,36.902 31.77,37.225 31.726,37.572 C31.599,37.562 31.488,37.559 31.377,37.546 C30.834,37.48 30.293,37.409 29.75,37.345 C28.517,37.194 27.283,37.046 26.048,36.9 C25.711,36.86 25.373,36.792 25.037,36.804 C24.086,36.836 23.135,36.9 22.184,36.956 C20.397,37.06 18.611,37.165 16.823,37.271 C15.545,37.347 14.264,37.419 12.984,37.492 C11.15,37.595 9.315,37.694 7.48,37.799 C6.897,37.832 6.316,37.871 5.733,37.908 C5.854,37.944 5.974,37.949 6.094,37.955 C7.166,38.015 8.24,38.075 9.313,38.137 C10.818,38.223 12.323,38.313 13.828,38.399 C14.638,38.447 15.447,38.486 16.257,38.534 C17.725,38.619 19.192,38.706 20.659,38.793 C21.911,38.865 23.161,38.941 24.413,39.007 C24.76,39.026 25.111,39.033 25.457,39.004 C26,38.957 26.541,38.873 27.084,38.806 C28.477,38.638 29.87,38.472 31.264,38.305 C31.419,38.287 31.574,38.278 31.73,38.265 C31.775,38.627 31.812,38.953 31.854,39.306 C31.52,39.353 31.197,39.4 30.873,39.448 C29.325,39.67 27.778,39.888 26.232,40.115 C25.822,40.177 25.403,40.219 25.013,40.346 C19.117,42.282 13.224,44.23 7.332,46.175 C7.231,46.208 7.135,46.25 7.036,46.289 C7.093,46.317 7.139,46.316 7.183,46.308 C8.639,46.006 10.096,45.704 11.552,45.402 C15.987,44.479 20.422,43.561 24.855,42.636 C25.279,42.547 25.712,42.474 26.112,42.319 C27.998,41.581 29.874,40.819 31.754,40.066 C31.839,40.033 31.926,40.006 32.025,39.973 C32.162,40.301 32.291,40.61 32.425,40.933 C32.32,40.983 32.226,41.028 32.133,41.068 C30.279,41.861 28.427,42.653 26.573,43.448 C26.418,43.515 26.266,43.594 26.126,43.686 C20.917,47.101 15.708,50.519 10.5,53.936 C10.426,53.984 10.355,54.038 10.282,54.09 C10.445,54.065 10.586,53.997 10.725,53.926 C16.228,51.155 21.73,48.384 27.232,45.611 C27.382,45.536 27.528,45.445 27.663,45.344 C29.286,44.13 30.907,42.915 32.529,41.7 C32.609,41.639 32.692,41.586 32.779,41.526 C33.003,41.814 33.207,42.079 33.419,42.35 C33.337,42.419 33.274,42.475 33.208,42.527 C32.187,43.332 31.16,44.131 30.141,44.937 C29.138,45.733 28.072,46.456 27.283,47.489 C27.236,47.549 27.181,47.602 27.131,47.659 C23.285,51.971 19.44,56.283 15.592,60.597 C15.532,60.663 15.479,60.735 15.421,60.804 C15.542,60.762 15.631,60.687 15.718,60.61 C20.339,56.487 24.961,52.365 29.582,48.241 C29.721,48.116 29.851,47.977 29.968,47.83 C31.216,46.247 32.461,44.659 33.709,43.073 C33.771,42.994 33.837,42.917 33.906,42.833 C34.19,43.056 34.453,43.265 34.733,43.483 C34.664,43.577 34.605,43.66 34.543,43.742 C33.334,45.356 32.123,46.97 30.916,48.586 C30.822,48.713 30.733,48.849 30.661,48.99 C27.84,54.585 25.022,60.179 22.204,65.775 C22.165,65.854 22.133,65.936 22.098,66.017 C22.183,65.954 22.238,65.878 22.288,65.801 C25.701,60.601 29.114,55.401 32.523,50.198 C32.641,50.018 32.744,49.825 32.829,49.628 C33.618,47.792 34.402,45.956 35.188,44.121 C35.231,44.021 35.279,43.926 35.324,43.827 C35.669,43.974 35.975,44.104 36.289,44.236 C36.239,44.367 36.202,44.474 36.161,44.579 C35.418,46.431 34.673,48.284 33.931,50.138 C33.878,50.269 33.827,50.403 33.799,50.54 C33.382,52.53 32.969,54.521 32.556,56.513 C31.729,60.496 30.901,64.477 30.076,68.46 C30.026,68.697 29.982,68.936 29.937,69.172 C30.016,69.09 30.056,68.996 30.087,68.901 C31.9,63.411 33.717,57.921 35.523,52.428 C35.735,51.786 36.01,51.161 36.08,50.478 C36.106,50.206 36.156,49.936 36.195,49.666 C36.391,48.286 36.588,46.906 36.786,45.526 C36.84,45.156 36.896,44.786 36.954,44.4 C37.314,44.446 37.644,44.486 37.992,44.531 C37.978,44.684 37.972,44.816 37.957,44.945 C37.891,45.486 37.822,46.03 37.757,46.572 C37.611,47.787 37.46,49.002 37.32,50.219 C37.277,50.591 37.221,50.968 37.235,51.342 C37.281,52.519 37.356,53.694 37.423,54.87 C37.46,55.586 37.502,56.301 37.544,57.016 C37.633,58.568 37.725,60.12 37.813,61.673 C37.857,62.425 37.897,63.178 37.939,63.931 C38.031,65.53 38.121,67.128 38.214,68.728 C38.249,69.33 38.289,69.929 38.327,70.529 C38.359,70.407 38.368,70.285 38.376,70.163 C38.435,69.1 38.493,68.036 38.555,66.974 C38.645,65.403 38.736,63.83 38.826,62.26 C38.888,61.198 38.946,60.134 39.007,59.071 C39.098,57.499 39.187,55.927 39.279,54.358 C39.326,53.548 39.383,52.739 39.42,51.93 C39.44,51.545 39.445,51.157 39.42,50.773 C39.397,50.388 39.327,50.006 39.28,49.623 C39.093,48.071 38.907,46.519 38.721,44.966 C38.703,44.821 38.697,44.676 38.685,44.529 C39.049,44.484 39.374,44.445 39.715,44.402 C39.74,44.537 39.765,44.656 39.782,44.774 C39.829,45.101 39.871,45.428 39.919,45.754 C40.121,47.171 40.326,48.587 40.528,50.004 C40.605,50.545 40.688,51.081 40.87,51.602 C41.184,52.5 41.473,53.407 41.769,54.31 C43.39,59.209 45.006,64.109 46.625,69.009 C46.648,69.079 46.679,69.149 46.706,69.218 C46.688,68.908 46.629,68.614 46.568,68.322 C45.952,65.362 45.337,62.404 44.722,59.444 C44.165,56.759 43.614,54.078 43.052,51.396 C42.955,50.936 42.884,50.472 42.703,50.029 C41.958,48.197 41.228,46.36 40.493,44.523 C40.457,44.429 40.422,44.335 40.385,44.232 C40.72,44.093 41.03,43.966 41.35,43.833 C41.398,43.934 41.442,44.018 41.477,44.103 C42.27,45.957 43.062,47.81 43.858,49.663 C43.931,49.835 44.02,50.003 44.123,50.16 C47.274,54.967 50.429,59.773 53.583,64.58 C53.916,65.088 54.25,65.595 54.585,66.102 C54.579,66.011 54.547,65.935 54.51,65.862 C51.681,60.24 48.85,54.62 46.017,49.002 C45.95,48.869 45.87,48.738 45.779,48.618 C44.554,46.98 43.329,45.344 42.103,43.707 C42.047,43.634 42.001,43.557 41.948,43.478 C42.232,43.257 42.497,43.05 42.771,42.836 C42.841,42.923 42.901,42.994 42.958,43.067 C44.219,44.668 45.475,46.269 46.735,47.869 C46.834,47.993 46.944,48.112 47.062,48.219 C49.889,50.741 52.717,53.264 55.545,55.785 C57.361,57.403 59.175,59.023 60.991,60.64 C61.051,60.695 61.104,60.77 61.245,60.788 C61.164,60.694 61.116,60.637 61.066,60.581 C56.944,55.96 52.823,51.339 48.697,46.718 C48.548,46.551 48.38,46.396 48.202,46.256 C46.628,45.012 45.047,43.774 43.469,42.532 C43.398,42.475 43.327,42.414 43.25,42.35 C43.47,42.071 43.679,41.806 43.899,41.526 C43.991,41.592 44.074,41.65 44.157,41.712 C45.334,42.593 46.524,43.456 47.683,44.361 C48.682,45.142 49.754,45.788 50.889,46.353 C55.972,48.89 61.039,51.457 66.114,54.011 C66.201,54.055 66.291,54.093 66.38,54.133 C66.314,54.031 66.229,53.973 66.144,53.916 C60.943,50.504 55.743,47.093 50.54,43.683 C50.407,43.595 50.265,43.519 50.119,43.456 C48.265,42.661 46.412,41.869 44.56,41.077 C44.456,41.033 44.356,40.984 44.247,40.933 C44.386,40.606 44.516,40.296 44.652,39.972 C44.756,40.009 44.844,40.037 44.929,40.071 C46.809,40.824 48.688,41.578 50.569,42.329 C50.717,42.388 50.871,42.44 51.026,42.472 C53.616,43.012 56.208,43.547 58.798,44.085 C62.098,44.771 65.398,45.458 68.697,46.143 C69.008,46.208 69.32,46.27 69.633,46.332 C69.527,46.241 69.407,46.199 69.285,46.16 C63.777,44.341 58.269,42.52 52.759,40.707 C52.18,40.516 51.613,40.28 51,40.194 C49.219,39.948 47.438,39.687 45.659,39.43 C45.382,39.39 45.105,39.345 44.815,39.301 C44.862,38.941 44.904,38.61 44.947,38.269 C45.013,38.272 45.06,38.271 45.105,38.277 L45.105,38.277 Z" id="Shape" fill="url(#linearGradient-1)"></path>
            </g>
        </g>
    </g>
</svg>