<?xml version="1.0" encoding="UTF-8" standalone="no"?>
<svg width="20px" height="20px" viewBox="0 0 20 20" version="1.1" xmlns="http://www.w3.org/2000/svg" xmlns:xlink="http://www.w3.org/1999/xlink">
    <!-- Generator: Sketch 3.8.3 (29802) - http://www.bohemiancoding.com/sketch -->
    <title>Shape</title>
    <desc>Created with Sketch.</desc>
    <defs></defs>
    <g id="Page-1" stroke="none" stroke-width="1" fill="none" fill-rule="evenodd">
        <path d="M17,2 L17,5 L15,5 C14.45,5 14,5.45 14,6 L14,8 L17,8 L17,11 L14,11 L14,18 L11,18 L11,11 L9,11 L9,8 L11,8 L11,5.5 C11,3.56 12.57,2 14.5,2 L17,2 Z M18,0 L2,0 C0.9,0 0,0.9 0,2 L0,18 C0,19.1 0.9,20 2,20 L18,20 C19.1,20 20,19.1 20,18 L20,2 C20,0.89 19.1,0 18,0 L18,0 Z" id="Shape" fill="#3B5998"></path>
    </g>
</svg>