<?xml version="1.0" encoding="UTF-8" standalone="no"?>
<svg width="20px" height="20px" viewBox="0 0 20 20" version="1.1" xmlns="http://www.w3.org/2000/svg" xmlns:xlink="http://www.w3.org/1999/xlink">
    <!-- Generator: Sketch 3.8.3 (29802) - http://www.bohemiancoding.com/sketch -->
    <title>Shape</title>
    <desc>Created with Sketch.</desc>
    <defs></defs>
    <g id="Page-1" stroke="none" stroke-width="1" fill="none" fill-rule="evenodd">
        <path d="M17,17 L14,17 L14,11.7 C14,10.87 13.33,10.2 12.5,10.2 C11.67,10.2 11,10.87 11,11.7 L11,17 L8,17 L8,8 L11,8 L11,9.2 C11.5,8.36 12.59,7.8 13.5,7.8 C15.43,7.8 17,9.37 17,11.3 L17,17 Z M4.5,6.31 C3.5,6.31 2.69,5.5 2.69,4.5 C2.69,3.5 3.5,2.69 4.5,2.69 C5.5,2.69 6.31,3.5 6.31,4.5 C6.31,5.5 5.5,6.31 4.5,6.31 L4.5,6.31 Z M6,17 L3,17 L3,8 L6,8 L6,17 Z M18,0 L2,0 C0.89,0 0,0.89 0,2 L0,18 C0,19.1 0.9,20 2,20 L18,20 C19.1,20 20,19.1 20,18 L20,2 C20,0.89 19.1,0 18,0 L18,0 Z" id="Shape" fill="#0077B5"></path>
    </g>
</svg>