<?xml version="1.0" encoding="UTF-8" standalone="no"?>
<svg width="30px" height="52px" viewBox="0 0 30 52" version="1.1" xmlns="http://www.w3.org/2000/svg" xmlns:xlink="http://www.w3.org/1999/xlink">
    <!-- Generator: Sketch 39.1 (31720) - http://www.bohemiancoding.com/sketch -->
    <title>B Leaves White</title>
    <desc>Created with Sketch.</desc>
    <defs></defs>
    <g id="Page-1" stroke="none" stroke-width="1" fill="none" fill-rule="evenodd">
        <g id="BPLogos" transform="translate(-4596.000000, -477.000000)" fill="#FFFFFF">
            <g id="B-Leaves-White" transform="translate(4596.000000, 477.000000)">
                <path d="M4.01704245,47.5350023 L0,51.5499992 L14.5946751,51.5499992 C18.7008428,51.5499992 22.249054,50.3449464 25.2394152,47.9348045 C28.4083055,45.3907658 29.9927268,42.1772915 29.9927268,38.2942851 C29.9927268,33.6971627 24.1012983,27.582597 24.1012983,27.582597 L4.01704245,47.5350023 Z" id="Combined-Shape"></path>
                <path d="M0,51.5499992 L0,0 L14.5946751,0 C18.7008428,0 22.249054,1.20505287 25.2394152,3.61519475 C28.4083055,6.15923341 29.9927268,9.37270772 29.9927268,13.2557141 C29.9927268,17.8528366 24.1012983,23.9674022 24.1012983,23.9674022 L0,51.5499992 Z M13.0669505,7.88714988 L7.88714988,7.88714988 L7.88714988,17.6754496 L13.2192976,17.6754496 C14.742776,17.6754496 16.0821473,17.2247606 17.2374517,16.3233693 C18.3927562,15.4219779 18.9703997,14.260343 18.9703997,12.8384299 C18.9703997,11.2641689 18.3610175,10.032709 17.1422348,9.14401327 C16.0504086,8.30610015 14.6919941,7.88714988 13.0669505,7.88714988 Z" id="Combined-Shape"></path>
            </g>
        </g>
    </g>
</svg>